<svg viewBox="0 0 1000 1000" fill="none" xmlns="http://www.w3.org/2000/svg">
<rect x="100" y="100" width="800" height="800" rx="140" fill="#366069"/>
<path d="M392.962 756.393H440.024C456.592 756.393 470.024 742.961 470.024 726.393V386.603L379.265 446.965C365.526 456.103 361.745 474.621 370.803 488.413L383.714 508.072L371.769 516.529L329 455.794L611.11 263.308C613.548 261.644 612.371 257.83 609.419 257.83H583.284C579.714 257.83 579.13 252.711 582.608 251.907L666.57 232.487C669.079 231.907 671.105 234.55 669.892 236.823L633.988 304.097C632.392 307.087 627.838 305.551 628.38 302.205L631.854 280.732C632.281 278.095 629.307 276.257 627.14 277.818L547.086 335.478V726.393C547.086 742.961 560.517 756.393 577.086 756.393H624.148V771H392.962V756.393Z" fill="white"/>
</svg>
